<svg id="Layer_1" data-name="Layer 1" xmlns="http://www.w3.org/2000/svg" viewBox="0 0 380.13 62.73"><defs><style>.cls-1{fill:#f3e1c8;}</style></defs><path class="cls-1" d="M15.94,50.61a9.83,9.83,0,0,0-.67,5.79.34.34,0,0,1,0,.16v.15a1.57,1.57,0,0,1-.87,1.3,3.67,3.67,0,0,1-2,.45,3.61,3.61,0,0,1-1.89-.53,1.37,1.37,0,0,1-.67-1.26q0-3.63-.09-16A2.27,2.27,0,0,1,12,38.14a2.18,2.18,0,0,1,1.12.2,2.22,2.22,0,0,1,.83.76,2.27,2.27,0,0,1,.33,1.24c0,.69,0,1.31,0,1.88s0,.9,0,1a1.25,1.25,0,0,0,0,.31.49.49,0,0,0,.21.39A.5.5,0,0,0,15,44a.5.5,0,0,0,.45-.41A9.34,9.34,0,0,1,18.14,39a7,7,0,0,1,4.75-2,10.3,10.3,0,0,1,4,.43A5.2,5.2,0,0,1,29.33,39a7.93,7.93,0,0,1,1.32,2.33,9.51,9.51,0,0,1,.59,2.76c.06,1,.13,1.92.22,2.89s.18,1.86.27,2.67a5.45,5.45,0,0,0,.67,2.13,2.87,2.87,0,0,0,1.53,1.28,4.91,4.91,0,0,0,4.44-.4,12.2,12.2,0,0,0,3.81-4.85A3.11,3.11,0,0,1,44,46.17a1.88,1.88,0,0,1,1.81.18,2.2,2.2,0,0,1,1.13,1.26,2.54,2.54,0,0,1-.23,1.88,24.39,24.39,0,0,1-3.32,4.87,12.57,12.57,0,0,1-3.57,2.89,11.37,11.37,0,0,1-3.63,1.15,8,8,0,0,1-3.52-.3,7.52,7.52,0,0,1-3.19-1.81,6.59,6.59,0,0,1-1.72-2.83,16.39,16.39,0,0,1-.63-3c-.11-1-.17-2-.2-3a13,13,0,0,0-.18-2.16q-.77-3.09-3-3.41c-1.61-.24-3.23.56-4.84,2.38A11.8,11.8,0,0,0,15.94,50.61Z" transform="translate(-9.75 -11.09)"/><path class="cls-1" d="M42.45,46.08q-1.25-2.32,3.19-5.88a2.64,2.64,0,0,1,2.87-.44,2.05,2.05,0,0,1,1.08,1.48,4.23,4.23,0,0,1-.45,2.55,7.8,7.8,0,0,0-1.21,3.5,7,7,0,0,0,.89,4.44,4.33,4.33,0,0,0,3.5,2.2q8.49.95,14.14-6.82a.44.44,0,0,1,.22-.22,2.2,2.2,0,0,1,1.66-.79,2.59,2.59,0,0,1,1.66.7,2.22,2.22,0,0,1,.81,1.43,2.35,2.35,0,0,1-.63,1.71,36.51,36.51,0,0,1-4.82,4.46,19,19,0,0,1-4.67,2.65,21.13,21.13,0,0,1-4.37,1.17,25.87,25.87,0,0,1-4.49.2,13.29,13.29,0,0,1-1.53-.18,12.86,12.86,0,0,1-1.77-.49A8.23,8.23,0,0,1,45,55.35a8.31,8.31,0,0,1-1.39-2.14,11.87,11.87,0,0,1-.88-3,16.24,16.24,0,0,1-.18-3.88Zm4.27-13.66a2.64,2.64,0,0,1,0-3.9,2.83,2.83,0,0,1,2.08-.83,2.87,2.87,0,0,1,2.09.83,2.62,2.62,0,0,1,.85,1.95,2.66,2.66,0,0,1-.38,1.39,2.78,2.78,0,0,1-1.08,1,3.1,3.1,0,0,1-1.5.38A2.84,2.84,0,0,1,46.72,32.42Z" transform="translate(-9.75 -11.09)"/><path class="cls-1" d="M74.31,43.79a8.15,8.15,0,0,0-1.73,2.56A30.08,30.08,0,0,1,71,49.18s0,0,0,0a2.69,2.69,0,0,1-1.39,1.21,1.83,1.83,0,0,1-1.44,0A2.09,2.09,0,0,1,67,49.15a3.26,3.26,0,0,1,.11-2.22A20.92,20.92,0,0,1,71.75,40a.49.49,0,0,0,.09-.62C70.61,37,70.19,35,70.58,33.25A10.44,10.44,0,0,1,71,31.72a5.86,5.86,0,0,1,.63-1.25,5.63,5.63,0,0,1,.89-1.06,8.49,8.49,0,0,1,1.19-.87,6.51,6.51,0,0,1,3.46-1,6.4,6.4,0,0,1,4.26,1.51,4.62,4.62,0,0,1,1.79,3.7,8.19,8.19,0,0,1-.15,1.57,6.21,6.21,0,0,1-.52,1.48A12.93,12.93,0,0,1,81.87,37a10,10,0,0,1-1,1.19c-.42.45-.75.79-1,1l-1.14,1.08a.47.47,0,0,0,0,.76q1.17,1.26,3.52,3.43c1.58,1.45,2.72,2.55,3.44,3.3a.53.53,0,0,0,.58.18,20.43,20.43,0,0,1,5.92-1.21c2.36-.18,4.76-.28,7.18-.29a41.7,41.7,0,0,0,5.11-.25,2.67,2.67,0,0,1,1.93.31,1.94,1.94,0,0,1,.86,1.31,2.12,2.12,0,0,1,0,.71,1.74,1.74,0,0,1-.31.7,2.13,2.13,0,0,1-.67.58,2.88,2.88,0,0,1-1.06.34c-.48.06-1.11.11-1.9.16s-1.6.06-2.43.06-1.73,0-2.73,0-2,.07-2.87.13a28.4,28.4,0,0,0-2.88.34,18.21,18.21,0,0,0-2.75.65.54.54,0,0,0-.32.31.58.58,0,0,0,0,.45.14.14,0,0,0,0,.09A16.52,16.52,0,0,1,92,59a16,16,0,0,1-.29,7.11,10.39,10.39,0,0,1-3.41,5.47,10.66,10.66,0,0,1-6,2.22,12.71,12.71,0,0,1-6.46-1.14q-1.53-1.26-1.62-1.35-3.72-3.81-2.24-10.13a13.25,13.25,0,0,1,3.14-6,23.42,23.42,0,0,1,5.83-4.62.46.46,0,0,0,.29-.33.55.55,0,0,0-.06-.47L81,49.63c-.36-.36-1-1-1.89-1.78s-1.66-1.54-2.29-2.15-1.22-1.23-1.79-1.86A.47.47,0,0,0,74.31,43.79Zm1.93-7.31a6.37,6.37,0,0,0,2.19-3.36,1.71,1.71,0,0,0,0-.45,1.62,1.62,0,0,0-.12-.43,1.65,1.65,0,0,0-.22-.36,1,1,0,0,0-.31-.24,1.65,1.65,0,0,0-.41-.14,1.67,1.67,0,0,0-1.57.7A3.84,3.84,0,0,0,75,34.42a2.64,2.64,0,0,0,0,.74c0,.25.08.43.11.54s.11.29.23.56a.53.53,0,0,0,.31.31.59.59,0,0,0,.45,0A.56.56,0,0,0,76.24,36.48Zm7.94,17.41c-.81.48-1.47.87-2,1.19s-1.1.72-1.79,1.23a12,12,0,0,0-1.71,1.5,12.3,12.3,0,0,0-1.3,1.77,9.49,9.49,0,0,0-1,2.25q-1.25,4.08,1.17,6.59a.56.56,0,0,1,.14.09,6.34,6.34,0,0,0,6.5.27l.27-.16a1.82,1.82,0,0,0,.27-.15l.27-.18a6.31,6.31,0,0,0,2-2.38,7.32,7.32,0,0,0,.74-3,13.09,13.09,0,0,0-.32-3.19,15.53,15.53,0,0,0-1-3.09,12.32,12.32,0,0,0-1.5-2.58.58.58,0,0,0-.36-.23A.6.6,0,0,0,84.18,53.89Z" transform="translate(-9.75 -11.09)"/><path class="cls-1" d="M124.06,42.45a5.09,5.09,0,0,1,2.65-.59,1.81,1.81,0,0,1,1.43.7,3.74,3.74,0,0,1,.41,2.36,12.56,12.56,0,0,0,.78,5.06,6.28,6.28,0,0,0,2.58,3.23,5.31,5.31,0,0,0,5.47-.06q3.06-1.56,5.88-6.22a3.75,3.75,0,0,1,1-.85,1.56,1.56,0,0,1,.92-.22,1.82,1.82,0,0,1,.78.27A2.36,2.36,0,0,1,147,47.72a3.37,3.37,0,0,1-.49,2.35v0a21,21,0,0,1-1.93,2.94,14.81,14.81,0,0,1-2.27,2.33,16.65,16.65,0,0,1-2.51,1.68,12.32,12.32,0,0,1-2.65,1.08,13.55,13.55,0,0,1-2.67.45,8.88,8.88,0,0,1-6.75-2.54q-2.76-2.67-3-7.87a.54.54,0,0,0-.63-.54.41.41,0,0,0-.18.05l-2,1-2.13,1.12c-.5.26-1.13.57-1.91.94s-1.5.71-2.18,1a19.48,19.48,0,0,1-5,1.39,13.35,13.35,0,0,1-2.81.11,5.82,5.82,0,0,1-2.42-.65,4.13,4.13,0,0,1-1.64-1.54,5.37,5.37,0,0,1,0-5.34,8.44,8.44,0,0,1,.85-1.48,13.75,13.75,0,0,1,4.69-3.95,14.41,14.41,0,0,1,6.32-1.71,10.27,10.27,0,0,1,6.44,2,3,3,0,0,1,.65.68,2.07,2.07,0,0,1,.34.76.54.54,0,0,0,.16.24.54.54,0,0,0,.26.16.51.51,0,0,0,.3,0A.34.34,0,0,0,124.06,42.45Zm-5.47,1.34a8,8,0,0,0-6.26.16A7.31,7.31,0,0,0,108,47.74a1,1,0,0,0-.14.54.84.84,0,0,0,.18.54q.94,1.13,4.69-.18A20.54,20.54,0,0,0,119.26,45a.4.4,0,0,0,.22-.38.58.58,0,0,0-.18-.42s0-.06-.09-.09A5.2,5.2,0,0,0,118.59,43.79Z" transform="translate(-9.75 -11.09)"/><path class="cls-1" d="M160,46.8A122.81,122.81,0,0,1,161.57,29a37,37,0,0,1,4.57-12.92,15.25,15.25,0,0,1,1.24-1.66,11.3,11.3,0,0,1,1.34-1.34,8.94,8.94,0,0,1,2.92-1.64,7.08,7.08,0,0,1,1.5-.34A7,7,0,0,1,178.7,13a9.83,9.83,0,0,1,2.92,6.44,9.93,9.93,0,0,1-.09,2.65q-.22,1.4-.54,2.58a13.4,13.4,0,0,1-1.14,2.74c-.56,1-1,1.89-1.42,2.58a26.4,26.4,0,0,1-1.86,2.73c-.85,1.14-1.49,2-1.93,2.54s-1.17,1.43-2.22,2.62l-2.08,2.38-2.14,2.38c-1.64,1.79-2.85,3.17-3.63,4.12a.44.44,0,0,0-.13.32v3.27a.57.57,0,0,0,.18.41.42.42,0,0,0,.4.13.48.48,0,0,0,.49-.31,26.14,26.14,0,0,1,4.36-6.46,19.71,19.71,0,0,1,6.25-4.8,9.05,9.05,0,0,1,6.26-.81,5,5,0,0,1,3.05,2,6.42,6.42,0,0,1,1.08,3.38c.06,1.29.05,2.59,0,3.91a22.56,22.56,0,0,0,.13,4,6.47,6.47,0,0,0,1.19,3.25,0,0,0,0,1,.05.05,3.53,3.53,0,0,0,.53.45q4.1,3,12.34-3.32a33.91,33.91,0,0,0,5.16-4.67c.06-.06.09-.1.09-.13a2.54,2.54,0,0,1,1.66-1.08,2.06,2.06,0,0,1,1.62.4,2.2,2.2,0,0,1,.92,1.4,2.75,2.75,0,0,1-.52,1.92A22.6,22.6,0,0,1,207.12,53q-1.55,1.55-3.49,3.17a29.09,29.09,0,0,1-4.2,2.87A26.34,26.34,0,0,1,195,61a11.66,11.66,0,0,1-4.47.61,8,8,0,0,1-4-1.35,10.49,10.49,0,0,1-2-1.72,7.55,7.55,0,0,1-1.24-2,10.24,10.24,0,0,1-.67-2.54,27.15,27.15,0,0,1-.25-3.29c0-1.26,0-2.7,0-4.31.06-2.24-.57-3.51-1.88-3.81s-3,.34-5,2a27.65,27.65,0,0,0-5.6,6.46,22.6,22.6,0,0,0-3.32,7.4,3.48,3.48,0,0,1-.65.85,4.38,4.38,0,0,1-.88.63,2.93,2.93,0,0,1-2.24.27A2.6,2.6,0,0,1,161,58.87c-.87-1.71-1.25-4.22-1.16-7.54T160,46.8Zm5.83-7.09a68,68,0,0,0,7.67-10.36q5.75-9.55,1.08-12.34a2.67,2.67,0,0,0-1.22-.4,2.84,2.84,0,0,0-2.1.78,7.72,7.72,0,0,0-1.82,2.38,26.36,26.36,0,0,0-1.5,3.54,38.66,38.66,0,0,0-1.22,4.18c-.33,1.42-.62,2.87-.89,4.37s-.49,2.86-.65,4.08-.28,2.35-.34,3.37a.57.57,0,0,0,.16.4.5.5,0,0,0,.4.18A.58.58,0,0,0,165.83,39.71Z" transform="translate(-9.75 -11.09)"/><path class="cls-1" d="M226.89,42.45a5.05,5.05,0,0,1,2.64-.59,1.83,1.83,0,0,1,1.44.7,3.75,3.75,0,0,1,.4,2.36,12.39,12.39,0,0,0,.79,5.06,6.28,6.28,0,0,0,2.58,3.23,5.31,5.31,0,0,0,5.47-.06q3-1.56,5.88-6.22a3.88,3.88,0,0,1,1-.85,1.59,1.59,0,0,1,.93-.22,1.82,1.82,0,0,1,.78.27,2.36,2.36,0,0,1,1.08,1.59,3.39,3.39,0,0,1-.5,2.35v0a21,21,0,0,1-1.93,2.94,14.34,14.34,0,0,1-2.26,2.33,16.65,16.65,0,0,1-2.51,1.68A12.53,12.53,0,0,1,240,58.15a13.55,13.55,0,0,1-2.67.45,8.88,8.88,0,0,1-6.75-2.54q-2.76-2.67-3-7.87a.53.53,0,0,0-.62-.54.41.41,0,0,0-.18.05l-2,1c-.92.49-1.63.87-2.13,1.12s-1.13.57-1.91.94-1.5.71-2.17,1a19.42,19.42,0,0,1-5.05,1.39,13.26,13.26,0,0,1-2.8.11,5.78,5.78,0,0,1-2.42-.65,4.07,4.07,0,0,1-1.64-1.54,5.4,5.4,0,0,1,0-5.34,9.12,9.12,0,0,1,.85-1.48,13.75,13.75,0,0,1,4.69-3.95,14.45,14.45,0,0,1,6.33-1.71,10.29,10.29,0,0,1,6.44,2,3.18,3.18,0,0,1,.65.68,2.23,2.23,0,0,1,.33.76.63.63,0,0,0,.16.24.57.57,0,0,0,.27.16.48.48,0,0,0,.29,0A.33.33,0,0,0,226.89,42.45Zm-5.48,1.34a8,8,0,0,0-6.26.16,7.34,7.34,0,0,0-4.33,3.79,1.13,1.13,0,0,0-.13.54.84.84,0,0,0,.18.54q.94,1.13,4.69-.18A20.65,20.65,0,0,0,222.09,45a.4.4,0,0,0,.22-.38.58.58,0,0,0-.18-.42s0-.06-.09-.09A6.23,6.23,0,0,0,221.41,43.79Z" transform="translate(-9.75 -11.09)"/><path class="cls-1" d="M253.18,50.61a9.83,9.83,0,0,0-.68,5.79.37.37,0,0,1,.05.16v.15a1.56,1.56,0,0,1-.88,1.3,3.63,3.63,0,0,1-2,.45,3.57,3.57,0,0,1-1.88-.53,1.38,1.38,0,0,1-.68-1.26q0-3.63-.09-16a2.29,2.29,0,0,1,.66-1.84,2.24,2.24,0,0,1,1.63-.67,2,2,0,0,1,1.95,1,2.2,2.2,0,0,1,.34,1.24c0,.69,0,1.31,0,1.88s0,.9,0,1a1.25,1.25,0,0,0,0,.31.5.5,0,0,0,.2.39.53.53,0,0,0,.43.11.5.5,0,0,0,.45-.41A9.4,9.4,0,0,1,255.37,39a7,7,0,0,1,4.76-2,10.32,10.32,0,0,1,4,.43A5.31,5.31,0,0,1,266.57,39a8.16,8.16,0,0,1,1.32,2.33,9.5,9.5,0,0,1,.58,2.76c.06,1,.14,1.92.23,2.89s.18,1.86.27,2.67a5.29,5.29,0,0,0,.67,2.13,2.87,2.87,0,0,0,1.53,1.28,4.92,4.92,0,0,0,4.44-.4,12.37,12.37,0,0,0,3.81-4.85,3.12,3.12,0,0,1,1.77-1.66,1.9,1.9,0,0,1,1.82.18,2.18,2.18,0,0,1,1.12,1.26,2.53,2.53,0,0,1-.22,1.88,24.82,24.82,0,0,1-3.32,4.87A12.7,12.7,0,0,1,277,57.25a11.37,11.37,0,0,1-3.63,1.15,8,8,0,0,1-3.52-.3,7.52,7.52,0,0,1-3.19-1.81A6.61,6.61,0,0,1,265,53.46a18.21,18.21,0,0,1-.63-3c-.1-1-.17-2-.2-3a13,13,0,0,0-.18-2.16q-.76-3.09-3-3.41c-1.62-.24-3.23.56-4.85,2.38A11.79,11.79,0,0,0,253.18,50.61Z" transform="translate(-9.75 -11.09)"/><path class="cls-1" d="M287.81,43.79a8.33,8.33,0,0,0-1.73,2.56c-.64,1.29-1.16,2.23-1.54,2.83,0,0-.05,0-.05,0a2.65,2.65,0,0,1-1.39,1.21,1.83,1.83,0,0,1-1.44,0,2.12,2.12,0,0,1-1.14-1.24,3.32,3.32,0,0,1,.11-2.22A21.34,21.34,0,0,1,285.25,40a.49.49,0,0,0,.09-.62c-1.22-2.4-1.64-4.44-1.25-6.15a11.91,11.91,0,0,1,.42-1.53,7,7,0,0,1,.63-1.25,5.68,5.68,0,0,1,.9-1.06,7.46,7.46,0,0,1,1.19-.87,6.46,6.46,0,0,1,3.45-1,6.36,6.36,0,0,1,4.26,1.51,4.63,4.63,0,0,1,1.8,3.7,7.47,7.47,0,0,1-.16,1.57,6.18,6.18,0,0,1-.51,1.48,12.82,12.82,0,0,1-.7,1.23,9.8,9.8,0,0,1-1,1.19c-.42.45-.76.79-1,1l-1.15,1.08a.47.47,0,0,0,0,.76c.77.84,2,2,3.52,3.43s2.71,2.55,3.43,3.3a.53.53,0,0,0,.58.18,20.43,20.43,0,0,1,5.93-1.21q3.54-.27,7.17-.29a41.9,41.9,0,0,0,5.12-.25,2.68,2.68,0,0,1,1.93.31,1.92,1.92,0,0,1,.85,1.31,2.42,2.42,0,0,1,0,.71,1.76,1.76,0,0,1-.32.7,2.13,2.13,0,0,1-.67.58,2.82,2.82,0,0,1-1.05.34c-.48.06-1.12.11-1.91.16s-1.6.06-2.42.06-1.74,0-2.74,0-2,.07-2.87.13a28.22,28.22,0,0,0-2.87.34,18.65,18.65,0,0,0-2.76.65.54.54,0,0,0-.32.31.59.59,0,0,0,0,.45.14.14,0,0,0,0,.09A16.37,16.37,0,0,1,305.46,59a15.9,15.9,0,0,1-.29,7.11,10.33,10.33,0,0,1-3.41,5.47,10.63,10.63,0,0,1-6,2.22,12.73,12.73,0,0,1-6.46-1.14c-1-.84-1.55-1.29-1.61-1.35-2.49-2.54-3.23-5.92-2.25-10.13a13.34,13.34,0,0,1,3.14-6,23.47,23.47,0,0,1,5.84-4.62.51.51,0,0,0,.29-.33.59.59,0,0,0-.07-.47l-.09-.09c-.36-.36-1-1-1.88-1.78s-1.66-1.54-2.29-2.15-1.23-1.23-1.8-1.86A.47.47,0,0,0,287.81,43.79Zm1.93-7.31a6.34,6.34,0,0,0,2.2-3.36,1.36,1.36,0,0,0,0-.45,1.6,1.6,0,0,0-.11-.43,1.69,1.69,0,0,0-.23-.36,1,1,0,0,0-.31-.24,1.57,1.57,0,0,0-.4-.14,1.66,1.66,0,0,0-1.57.7,3.85,3.85,0,0,0-.86,2.22,2.32,2.32,0,0,0,0,.74,5.38,5.38,0,0,0,.11.54,5.27,5.27,0,0,0,.22.56.54.54,0,0,0,.32.31.54.54,0,0,0,.58-.09Zm7.94,17.41c-.81.48-1.47.87-2,1.19s-1.11.72-1.8,1.23a11.89,11.89,0,0,0-1.7,1.5,11.59,11.59,0,0,0-1.3,1.77,9.49,9.49,0,0,0-1,2.25q-1.26,4.08,1.17,6.59a.48.48,0,0,1,.13.09,6.36,6.36,0,0,0,6.51.27,2.26,2.26,0,0,1,.26-.16,1.82,1.82,0,0,0,.27-.15l.27-.18a6.31,6.31,0,0,0,2-2.38,7.32,7.32,0,0,0,.74-3,13.58,13.58,0,0,0-.31-3.19,16.21,16.21,0,0,0-1-3.09,12.79,12.79,0,0,0-1.51-2.58.58.58,0,0,0-.36-.23A.6.6,0,0,0,297.68,53.89Z" transform="translate(-9.75 -11.09)"/><path class="cls-1" d="M323.48,52.68a4.6,4.6,0,0,0,1.52.87,7.47,7.47,0,0,0,1.66.38,8.11,8.11,0,0,0,1.77,0,14.62,14.62,0,0,0,1.75-.31c.53-.14,1.1-.31,1.73-.52s1.15-.4,1.57-.58.88-.39,1.39-.63c1.26-.63,2.31-1.15,3.17-1.55s1.9-.86,3.16-1.37,2.4-.92,3.45-1.25a35.84,35.84,0,0,1,3.55-.9,29.59,29.59,0,0,1,3.94-.54,2.42,2.42,0,0,1,1.89.52,2.12,2.12,0,0,1,.72,1.54,2.45,2.45,0,0,1-.07.86,2.17,2.17,0,0,1-.38.74,2.33,2.33,0,0,1-.74.58,2.82,2.82,0,0,1-1.06.29,27.08,27.08,0,0,0-5.67,1,37.43,37.43,0,0,0-4.58,1.57q-1.68.74-4.6,2.18c-.42.21-.73.36-.94.45a38.41,38.41,0,0,1-5.31,2,13.45,13.45,0,0,1-4.78.42,12.58,12.58,0,0,1-5.48-1.77,8.39,8.39,0,0,1-3.27-4.33,13.33,13.33,0,0,1-.76-4.51,10,10,0,0,1,.92-4,14.79,14.79,0,0,1,2-3.32A16.07,16.07,0,0,1,325.92,36a17.12,17.12,0,0,1,3.79-1.18,8.86,8.86,0,0,1,3.77.09,5.56,5.56,0,0,1,3,1.79,5.28,5.28,0,0,1,1.21,3.59,6.12,6.12,0,0,1-1.89,3.45,24,24,0,0,1-3.74,3.17,46,46,0,0,1-3.93,2.49c-1.13.62-2.66,1.43-4.57,2.42a.48.48,0,0,0-.25.33.62.62,0,0,0,0,.43A.32.32,0,0,0,323.48,52.68Zm8.88-13a4.16,4.16,0,0,0-.54-.23,5.29,5.29,0,0,0-3.36,0,8,8,0,0,0-3,1.78,14.69,14.69,0,0,0-2.19,2.58A9.36,9.36,0,0,0,322,46.4a.46.46,0,0,0,0,.44.54.54,0,0,0,.36.27h.11a.34.34,0,0,0,.14,0l.15,0,1.42-.79,1.55-.85,1.36-.78c.68-.39,1.18-.71,1.53-.95s.78-.54,1.3-.92,1-.74,1.41-1.1a12.44,12.44,0,0,0,1.17-1.12.52.52,0,0,0,.16-.42.5.5,0,0,0-.21-.38Z" transform="translate(-9.75 -11.09)"/><path class="cls-1" d="M358.83,50.61a9.83,9.83,0,0,0-.67,5.79.34.34,0,0,1,0,.16v.15a1.57,1.57,0,0,1-.87,1.3,3.69,3.69,0,0,1-2.05.45,3.6,3.6,0,0,1-1.88-.53,1.37,1.37,0,0,1-.67-1.26q0-3.63-.09-16a2.27,2.27,0,0,1,2.29-2.51,2.18,2.18,0,0,1,1.12.2,2.22,2.22,0,0,1,.83.76,2.27,2.27,0,0,1,.33,1.24c0,.69,0,1.31,0,1.88s0,.9,0,1a1.25,1.25,0,0,0,0,.31.49.49,0,0,0,.21.39.5.5,0,0,0,.42.11.5.5,0,0,0,.45-.41A9.34,9.34,0,0,1,361,39a7,7,0,0,1,4.75-2,10.3,10.3,0,0,1,4,.43A5.26,5.26,0,0,1,372.22,39a8.16,8.16,0,0,1,1.32,2.33,9.51,9.51,0,0,1,.59,2.76c.06,1,.13,1.92.22,2.89s.18,1.86.27,2.67a5.45,5.45,0,0,0,.67,2.13,2.87,2.87,0,0,0,1.53,1.28,4.92,4.92,0,0,0,4.44-.4,12.2,12.2,0,0,0,3.81-4.85,3.11,3.11,0,0,1,1.78-1.66,1.88,1.88,0,0,1,1.81.18,2.18,2.18,0,0,1,1.12,1.26,2.53,2.53,0,0,1-.22,1.88,24.39,24.39,0,0,1-3.32,4.87,12.7,12.7,0,0,1-3.57,2.89A11.37,11.37,0,0,1,379,58.4a8,8,0,0,1-3.52-.3,7.52,7.52,0,0,1-3.19-1.81,6.49,6.49,0,0,1-1.72-2.83,16.39,16.39,0,0,1-.63-3c-.11-1-.18-2-.2-3a13,13,0,0,0-.18-2.16q-.77-3.09-3-3.41c-1.61-.24-3.23.56-4.85,2.38A11.86,11.86,0,0,0,358.83,50.61Z" transform="translate(-9.75 -11.09)"/></svg>